<?xml version="1.0" encoding="UTF-8"?>
<svg width="1050px" height="225px" viewBox="0 0 1050 225" version="1.1" xmlns="http://www.w3.org/2000/svg" xmlns:xlink="http://www.w3.org/1999/xlink">
    <!-- Generator: Sketch 53.2 (72643) - https://sketchapp.com -->
    <title>logo/marketgoo color</title>
    <desc>Created with Sketch.</desc>
    <g id="logo/marketgoo-color" stroke="none" stroke-width="1" fill="none" fill-rule="evenodd">
        <g id="Logo/MarketGoo" fill="#0090DA">
            <path d="M38.4401401,70.2770958 C45.8388692,59.2911041 56.6006571,51.4439671 72.294931,51.4439671 C90.455448,51.4439671 102.114052,59.9637158 107.270742,73.8643584 C114.669471,61.3089393 126.10387,51.4439671 144.264387,51.4439671 C172.065673,51.4439671 183.724276,69.1560763 183.724276,94.9395263 L183.724276,149.196873 C183.724276,160.631273 177.894974,164.218536 169.59943,164.218536 L166.460575,164.218536 C157.940826,164.218536 152.111524,160.855477 152.111524,149.196873 L152.111524,100.096216 C152.111524,85.5229619 145.609611,77.9000289 133.054192,77.9000289 C123.861831,77.9000289 115.79049,83.5051267 111.306412,91.3522637 L111.306412,149.196873 C111.306412,160.631273 105.47711,164.218536 97.4057694,164.218536 L94.0427107,164.218536 C85.7471659,164.218536 79.6936602,160.855477 79.6936602,149.196873 L79.6936602,100.768828 C79.6936602,85.5229619 73.4159506,77.9000289 60.8605314,77.9000289 C51.668171,77.9000289 43.5968301,83.5051267 39.1127518,91.3522637 L39.1127518,149.196873 C39.1127518,160.631273 33.2834501,164.218536 25.2121092,164.218536 L21.8490505,164.218536 C13.3293018,164.218536 7.5,160.855477 7.5,149.196873 L7.5,56.3764532 C7.5,55.4796375 13.1050978,52.7891906 19.3828074,52.7891906 C27.4541483,52.7891906 36.1981009,56.3764532 38.4401401,70.2770958 Z M240.597336,145.161203 C256.29161,145.161203 267.277601,134.847823 267.277601,120.498772 L267.277601,114.221063 L261.4483,114.445267 C236.561665,115.117879 223.557838,120.050365 223.557838,131.933172 C223.557838,140.004513 230.059752,145.161203 240.597336,145.161203 Z M267.277601,96.9573615 C267.277601,82.832515 259.430464,75.2095819 244.85721,75.2095819 C229.611344,75.2095819 221.764207,83.5051267 217.728536,92.0248754 C217.728536,92.4732833 197.32598,93.145895 197.32598,78.5726406 C197.32598,64.8962019 213.468662,51.4439671 246.875045,51.4439671 C281.402448,51.4439671 298.441945,67.138241 298.441945,96.5089537 L298.441945,161.303885 C298.441945,162.873312 292.612644,164.891147 286.559138,164.891147 C276.694166,164.891147 269.743844,159.510253 267.950213,147.403242 C260.103076,158.837642 246.426637,165.787963 230.059752,165.787963 C207.190952,165.787963 193.29031,152.784136 193.29031,134.175211 C193.29031,109.064373 215.710701,97.6299733 263.690339,96.9573615 L267.277601,96.9573615 Z M345.001625,71.3981154 C349.485703,58.8426962 358.453859,51.4439671 371.68189,51.4439671 C384.461513,51.4439671 392.084447,58.6184923 392.084447,69.828688 C392.084447,82.3841072 382.443678,86.8681854 381.99527,86.4197776 C378.632212,83.2809228 373.699726,81.0388837 367.64622,81.0388837 C352.17615,81.0388837 345.450032,94.4911185 345.450032,116.463102 L345.450032,149.196873 C345.450032,160.631273 339.620731,164.218536 331.54939,164.218536 L328.186331,164.218536 C319.666582,164.218536 313.837281,160.855477 313.837281,149.196873 L313.837281,56.3764532 C313.837281,55.4796375 319.442379,52.7891906 325.720088,52.7891906 C334.015633,52.7891906 342.983789,56.6006571 345.001625,71.3981154 Z M431.021193,112.875839 L431.021193,149.196873 C431.021193,160.631273 425.191891,164.218536 417.12055,164.218536 L413.757492,164.218536 C405.237743,164.218536 399.408441,160.855477 399.408441,149.196873 L399.408441,11.0872626 C399.408441,9.96624305 405.013539,7.5 411.291248,7.5 C420.707813,7.5 431.021193,12.4324861 431.021193,32.8350422 L431.021193,101.44144 L461.737129,62.6541628 C466.893819,55.2554336 473.619936,52.5649866 479.00083,52.5649866 C489.31421,52.5649866 496.937143,61.7573471 496.040328,63.3267745 L461.737129,106.149722 L500.524406,153.905156 C501.421222,155.474583 493.349881,164.666943 483.260705,164.666943 C477.431403,164.666943 470.929489,162.2007 465.324392,154.577767 L431.021193,112.875839 Z M527.354141,98.7509929 L580.938876,98.7509929 C580.266265,83.5051267 570.625496,73.4159506 555.37963,73.4159506 C540.582172,73.4159506 529.371976,83.9535346 527.354141,98.7509929 Z M527.354141,117.135714 C529.59618,133.502599 541.927395,143.143368 558.966893,143.143368 C575.557983,143.143368 584.750343,135.744639 589.907033,127.000686 C590.131237,126.552278 605.152899,128.570113 605.152899,141.349736 C605.152899,153.00834 588.337606,166.236371 557.845873,166.236371 C522.197451,166.236371 498.65604,144.040183 498.65604,109.512781 C498.65604,76.1063976 522.645859,51.4439671 555.828038,51.4439671 C588.113402,51.4439671 610.309589,74.0885624 610.309589,106.149722 L610.309589,108.391761 C610.085385,113.996859 608.515958,117.135714 602.686656,117.135714 L527.354141,117.135714 Z M629.740595,78.5726406 L624.359701,78.5726406 C615.391545,78.5726406 611.13167,74.7611741 611.13167,67.5866489 L611.13167,65.5688136 C611.13167,57.9458806 615.391545,53.9102101 624.359701,53.9102101 L629.740595,53.9102101 L629.740595,40.0095675 C629.740595,29.6961875 635.121489,24.7637014 644.089645,24.7637014 L646.780092,24.7637014 C655.299841,24.7637014 660.904939,28.350964 660.904939,40.0095675 L660.904939,53.9102101 L679.962272,53.9102101 C688.930428,53.9102101 692.741895,57.7216767 692.741895,65.1204058 L692.741895,66.9140371 C692.741895,74.5369702 688.706224,78.5726406 679.513864,78.5726406 L660.232327,78.5726406 L660.232327,125.207055 C660.232327,135.968843 663.81959,141.349736 672.339339,141.349736 C678.841252,141.349736 683.101126,138.210882 686.464185,133.951007 C686.912593,133.278396 694.087118,137.53827 694.087118,146.282223 C694.087118,157.268214 683.101126,166.236371 665.164813,166.236371 C640.950791,166.236371 629.740595,153.456748 629.740595,128.794317 L629.740595,78.5726406 Z M746.924507,163.32172 C731.230233,164.44274 719.57163,169.59943 719.57163,178.343382 C719.57163,185.966315 728.539786,190.674597 746.700303,190.674597 C764.86082,190.674597 774.949996,185.742111 774.949996,177.222363 C774.949996,168.47841 761.273558,166.460575 746.924507,163.32172 Z M747.148711,113.100043 C759.479926,113.100043 767.999675,104.804499 767.999675,92.4732833 C767.999675,80.3662719 759.479926,72.0707271 746.924507,72.0707271 C734.817496,72.0707271 726.297747,80.142068 726.297747,92.4732833 C726.297747,104.804499 735.0417,113.100043 747.148711,113.100043 Z M770.690122,56.3764532 L775.398404,47.4082966 C779.658279,39.5611597 784.142357,36.4223049 791.092678,36.4223049 C802.302874,36.4223049 807.23536,49.2019279 806.562748,49.8745397 C806.562748,49.8745397 787.729619,68.0350567 787.505416,68.0350567 C793.783125,74.5369702 797.370388,83.0567189 797.370388,92.4732833 C797.370388,115.79049 777.864647,131.708968 747.372915,131.708968 L745.803488,131.708968 C745.579284,132.38158 745.35508,133.278396 745.35508,133.951007 C745.35508,140.004513 755.892664,140.677125 773.604773,145.161203 C789.074843,149.421077 805.217525,157.716622 805.217525,176.101343 C805.217525,197.176511 783.469745,210.628746 746.027692,210.628746 C707.016211,210.628746 689.528305,200.987977 689.528305,180.137014 C689.528305,164.891147 703.877356,154.577767 723.831504,151.88732 C721.141057,149.421077 719.795834,146.058019 719.795834,141.798144 C719.795834,136.641454 722.934688,131.933172 727.194563,129.018521 C708.585638,123.637627 697.151238,110.185392 697.151238,92.9216911 C697.151238,69.3802802 718.002202,51.668171 746.924507,51.668171 C755.444256,51.668171 763.515597,53.2375984 770.690122,56.3764532 Z M862.314788,166.236371 C827.563181,166.236371 804.021771,143.143368 804.021771,108.840169 C804.021771,74.985378 828.011589,51.4439671 862.763196,51.4439671 C897.290599,51.4439671 920.83201,74.985378 920.83201,109.064373 C920.83201,143.143368 897.290599,166.236371 862.314788,166.236371 Z M862.538992,141.349736 C880.026897,141.349736 893.030724,127.673298 893.030724,109.064373 C893.030724,90.0070402 880.251101,76.1063976 862.538992,76.1063976 C844.826883,76.1063976 831.823056,89.7828363 831.823056,108.840169 C831.823056,127.673298 844.826883,141.349736 862.538992,141.349736 Z M983.982779,166.236371 C949.231172,166.236371 925.689761,143.143368 925.689761,108.840169 C925.689761,74.985378 949.67958,51.4439671 984.431186,51.4439671 C1018.95859,51.4439671 1042.5,74.985378 1042.5,109.064373 C1042.5,143.143368 1018.95859,166.236371 983.982779,166.236371 Z M984.206982,141.349736 C1001.69489,141.349736 1014.69871,127.673298 1014.69871,109.064373 C1014.69871,90.0070402 1001.91909,76.1063976 984.206982,76.1063976 C966.494873,76.1063976 953.491046,89.7828363 953.491046,108.840169 C953.491046,127.673298 966.494873,141.349736 984.206982,141.349736 Z" id="marketgoo"></path>
        </g>
    </g>
</svg>