<?xml version="1.0" encoding="UTF-8"?>
<svg width="270px" height="130px" viewBox="0 0 270 130" version="1.1" xmlns="http://www.w3.org/2000/svg" xmlns:xlink="http://www.w3.org/1999/xlink">
    <!-- Generator: Sketch 55 (78076) - https://sketchapp.com -->
    <title>logo/ola</title>
    <desc>Created with Sketch.</desc>
    <defs>
        <path d="M46.5897764,126.018279 C16.7260288,126.018279 4,107.862477 4,87.1614705 C4,61.7094129 20.1196365,36.4270357 52.5285899,36.4270357 C82.3923375,36.4270357 95.1183663,54.5828368 95.1183663,75.2838436 C95.1183663,100.735901 78.9987298,126.018279 46.5897764,126.018279 Z M47.268498,97.3422936 C57.1099602,97.3422936 62.5397325,86.8221098 62.5397325,76.8109671 C62.5397325,70.1934321 58.2977229,65.1030206 51.8498683,65.1030206 C42.008406,65.1030206 36.5786338,75.6232044 36.5786338,85.6343471 C36.5786338,92.2518821 40.8206434,97.3422936 47.268498,97.3422936 Z M124.133712,126.018279 C102.075262,126.018279 98.0029328,112.783209 101.22686,97.3422936 L117.176816,22.1738834 C120.231063,7.75105076 125.321475,3 135.502298,3 L139.574627,3 C150.264491,3 160.105953,7.41168999 156.882026,22.1738834 L140.592709,99.0390974 C138.217184,109.728962 139.913988,113.970971 145.17408,116.346497 C145.51344,116.685857 141.780472,126.018279 124.133712,126.018279 Z M219.833449,73.0779987 C217.797284,69.1753498 214.912717,66.2907833 209.482945,66.2907833 C200.320204,66.2907833 194.381391,74.9444829 194.381391,85.1253059 C194.381391,90.894439 197.944679,95.306129 204.053173,95.306129 C210.501028,95.306129 215.9308,91.2337998 217.797284,82.4104198 L219.833449,73.0779987 Z M215.421759,108.371519 C209.991986,118.382661 199.641483,125.848598 186.406413,125.848598 C168.080931,125.848598 156.372985,112.443848 156.372985,92.4215624 C156.372985,63.9152579 174.528786,36.4270357 201.507967,36.4270357 C211.51911,36.4270357 222.039294,41.008406 226.790344,51.1892291 C232.220117,41.6871276 240.364775,37.7844788 252.581763,37.7844788 C260.21738,37.7844788 266.325874,41.008406 265.986513,42.5355295 L253.939206,99.0390974 C251.56368,109.728962 253.260484,113.970971 258.520576,116.346497 C258.859937,116.685857 255.126969,126.018279 238.328611,126.018279 C223.566417,126.018279 216.609521,118.891702 215.421759,108.371519 Z" id="path-1"></path>
    </defs>
    <g id="logo/ola" stroke="none" stroke-width="1" fill="none" fill-rule="evenodd">
        <mask id="mask-2" fill="white">
            <use xlink:href="#path-1"></use>
        </mask>
        <use id="Mask" stroke="#0090DA" stroke-width="5" fill-rule="nonzero" xlink:href="#path-1"></use>
    </g>
</svg>